<svg xmlns="http://www.w3.org/2000/svg" viewBox="-2 -2 74 164" width="512" height="512">
  <path fill-rule="evenodd" fill="#8b5cf6" d="M 43.0 0.0 L 38.8 1.1 L 34.5 4.9 L 28.4 17.4 L 27.0 31.4 L 30.0 49.9 L 7.3 70.7 L 1.9 80.0 L 0.0 88.7 L 0.9 97.0 L 3.9 104.2 L 15.2 116.3 L 31.5 122.5 L 48.5 121.5 L 53.0 143.2 L 51.3 148.9 L 46.5 153.9 L 33.8 156.5 L 26.7 152.4 L 33.9 151.5 L 37.7 146.0 L 36.8 139.7 L 31.8 135.5 L 22.0 135.3 L 15.8 141.5 L 15.7 148.0 L 18.8 153.4 L 25.8 158.1 L 34.0 159.9 L 46.0 158.2 L 54.4 151.0 L 56.3 140.3 L 51.8 120.2 L 63.0 113.0 L 66.0 109.0 L 69.9 99.7 L 68.2 90.4 L 61.8 82.6 L 53.8 78.1 L 40.3 75.7 L 36.6 61.3 L 50.3 46.8 L 55.4 30.3 L 54.6 19.6 L 51.7 9.6 L 48.0 2.9 Z M 43.8 87.8 L 47.2 87.9 L 50.5 88.5 L 52.5 89.2 L 55.0 90.5 L 57.4 92.5 L 58.7 94.1 L 60.3 96.9 L 61.2 99.1 L 61.6 101.7 L 61.6 106.0 L 60.5 109.0 L 59.1 110.8 L 56.7 113.5 L 53.4 116.1 L 51.1 117.4 L 50.8 117.3 L 48.0 107.4 L 43.4 88.5 L 43.4 87.9 Z M 34.0 63.6 L 37.6 77.3 L 30.7 80.4 L 25.6 85.4 L 22.4 91.9 L 22.3 99.0 L 24.5 104.3 L 27.9 108.2 L 33.0 111.2 L 37.3 111.7 L 37.4 110.1 L 32.8 107.8 L 29.8 104.5 L 28.6 101.6 L 28.5 98.5 L 29.8 95.0 L 32.7 91.8 L 36.3 89.5 L 40.4 88.3 L 47.6 118.2 L 45.2 119.3 L 36.4 119.7 L 31.9 119.2 L 25.5 117.6 L 20.2 115.4 L 15.6 112.4 L 12.3 109.3 L 9.9 105.7 L 8.6 101.8 L 8.3 97.0 L 8.9 92.5 L 13.1 83.3 L 21.4 73.6 Z M 47.6 14.2 L 49.1 15.1 L 50.3 16.5 L 51.2 19.4 L 51.0 23.4 L 49.3 28.3 L 47.1 32.4 L 43.7 37.1 L 39.7 41.3 L 33.3 47.1 L 32.0 40.5 L 31.7 33.0 L 32.6 27.5 L 33.9 23.4 L 36.8 18.6 L 38.2 17.0 L 40.3 15.3 L 42.3 14.2 L 44.2 13.8 L 46.0 13.8 Z"/>
</svg>